<svg width="40" height="40" viewBox="0 0 40 40" fill="none" xmlns="http://www.w3.org/2000/svg">
<path d="M17.15 6.43334L3.03333 30C2.74228 30.504 2.58828 31.0755 2.58665 31.6575C2.58502 32.2396 2.73582 32.8119 3.02404 33.3175C3.31227 33.8232 3.72788 34.2446 4.22951 34.5398C4.73115 34.8349 5.30133 34.9936 5.88333 35H34.1167C34.6987 34.9936 35.2689 34.8349 35.7705 34.5398C36.2721 34.2446 36.6877 33.8232 36.976 33.3175C37.2642 32.8119 37.415 32.2396 37.4134 31.6575C37.4117 31.0755 37.2577 30.504 36.9667 30L22.85 6.43334C22.5529 5.94352 22.1345 5.53854 21.6353 5.25748C21.1361 4.97642 20.5729 4.82877 20 4.82877C19.4271 4.82877 18.8639 4.97642 18.3647 5.25748C17.8655 5.53854 17.4471 5.94352 17.15 6.43334Z" stroke="#FFAA00" stroke-width="2" stroke-linecap="round" stroke-linejoin="round"/>
<path d="M20 15V21.6667" stroke="#FFAA00" stroke-width="2" stroke-linecap="round" stroke-linejoin="round"/>
<path d="M20 28.3333H20.0167" stroke="#FFAA00" stroke-width="2" stroke-linecap="round" stroke-linejoin="round"/>
</svg>
